<svg width="17" height="17" viewBox="0 0 17 17" fill="none" xmlns="http://www.w3.org/2000/svg">
<path fill-rule="evenodd" clip-rule="evenodd" d="M0 16.8L1.4448 12.4656C0.711199 11.2336 0.291199 9.79438 0.291199 8.25438C0.291199 3.69599 3.98719 0 8.54558 0C13.104 0 16.8 3.69599 16.8 8.25438C16.8 12.8128 13.104 16.5088 8.54558 16.5088C7.15679 16.5088 5.85199 16.1672 4.70399 15.5624L0 16.8Z" fill="#DADADA"/>
<path fill-rule="evenodd" clip-rule="evenodd" d="M13.8096 11.0039C13.4289 10.2815 12.0233 9.45834 12.0233 9.45834C11.7041 9.27914 11.3233 9.25674 11.1385 9.58154C11.1385 9.58154 10.6793 10.1303 10.5673 10.2087C10.0353 10.5671 9.54246 10.5559 9.04966 10.0575L7.89606 8.90394L6.74246 7.75034C6.24406 7.25194 6.23286 6.76474 6.59126 6.23274C6.66966 6.11514 7.21846 5.66154 7.21846 5.66154C7.54326 5.48234 7.52086 5.09594 7.34166 4.77674C7.34166 4.77674 6.51846 3.37115 5.79606 2.99035C5.48807 2.82795 5.11287 2.88395 4.86647 3.13035L4.35687 3.63995C2.74407 5.25274 3.53927 7.07834 5.15207 8.69674L6.63046 10.1751L8.10886 11.6535C9.72166 13.2663 11.5473 14.0671 13.1657 12.4487L13.6753 11.9391C13.9216 11.6927 13.9776 11.3175 13.8152 11.0095L13.8096 11.0039Z" fill="white"/>
</svg>
