<?xml version="1.0" encoding="utf-8"?><svg xmlns="http://www.w3.org/2000/svg" xmlns:xlink="http://www.w3.org/1999/xlink"><symbol viewBox="0 0 14 14" id="clock" xmlns="http://www.w3.org/2000/svg"><path d="M6.917 13a5.917 5.917 0 100-11.833 5.917 5.917 0 000 11.833z"/><path d="M6.915 3.533v3.55l2.367 1.183"/></symbol><symbol viewBox="0 0 7 7" id="confirmed" xmlns="http://www.w3.org/2000/svg"><path d="M5.8 1L2.91 5.2 1 3.291"/></symbol><symbol viewBox="0 0 13 14" id="fare" xmlns="http://www.w3.org/2000/svg"><path d="M6.5 4.667c3.038 0 5.5-.821 5.5-1.834C12 1.821 9.538 1 6.5 1S1 1.82 1 2.833s2.462 1.834 5.5 1.834zM12 7.111c0 1.015-2.444 1.833-5.5 1.833S1 8.126 1 7.111"/><path d="M1 2.833v8.556c0 1.014 2.444 1.833 5.5 1.833s5.5-.819 5.5-1.833V2.833"/></symbol><symbol viewBox="0 0 15 16" id="layers" xmlns="http://www.w3.org/2000/svg"><path d="M7.104 13.07L1.28 8.544 0 9.538l7.112 5.532 7.112-5.532-1.288-1.003-5.832 4.536zm.008-2.007l5.816-4.528 1.296-1.003L7.112 0 0 5.532l1.288 1.003 5.824 4.528z"/></symbol><symbol viewBox="0 0 12 14" id="refund" xmlns="http://www.w3.org/2000/svg"><path d="M8.778 13.222L11 11 8.778 8.778"/><path d="M1 7.667v1.11A2.222 2.222 0 003.222 11H11M3.222 1L1 3.222l2.222 2.222"/><path d="M11 6.555v-1.11a2.222 2.222 0 00-2.222-2.223H1"/></symbol><symbol viewBox="0 0 17 17" id="telegram" xmlns="http://www.w3.org/2000/svg"><path d="M8.6 16.8A8.4 8.4 0 108.6 0a8.4 8.4 0 000 16.8z"/><path fill-rule="evenodd" clip-rule="evenodd" d="M7.447 9.626l3.796 2.862 1.915-8.176L3.37 8.165l2.979.985 5.438-3.65-4.34 4.126z"/><path fill-rule="evenodd" clip-rule="evenodd" d="M6.349 9.15l.812 2.935.286-2.459 4.34-4.127L6.349 9.15z"/><path fill-rule="evenodd" clip-rule="evenodd" d="M8.684 10.556l-1.523 1.529.285-2.459 1.238.93z"/></symbol><symbol viewBox="0 0 9 10" id="union" xmlns="http://www.w3.org/2000/svg"><path fill-rule="evenodd" clip-rule="evenodd" d="M4.5 4.684a2 2 0 100-4 2 2 0 000 4zM4.5 5C2.18 5 .3 7.138.3 9.2h8.4C8.7 7.138 6.82 5 4.5 5z"/></symbol><symbol viewBox="0 0 17 17" id="whatsup" xmlns="http://www.w3.org/2000/svg"><path fill-rule="evenodd" clip-rule="evenodd" d="M0 16.8l1.445-4.334a8.255 8.255 0 113.26 3.097L-.001 16.8z"/><path fill-rule="evenodd" clip-rule="evenodd" d="M13.81 11.004c-.381-.723-1.787-1.546-1.787-1.546-.319-.179-.7-.201-.884.124 0 0-.46.548-.572.627-.532.358-1.025.347-1.517-.152L7.896 8.904 6.742 7.75c-.498-.498-.51-.985-.15-1.517.078-.118.626-.571.626-.571.325-.18.303-.566.124-.885 0 0-.824-1.406-1.546-1.787a.79.79 0 00-.93.14l-.51.51c-1.612 1.613-.817 3.438.796 5.057l1.478 1.478 1.479 1.478c1.613 1.613 3.438 2.414 5.057.796l.51-.51a.79.79 0 00.14-.93l-.006-.005z"/></symbol></svg>