<svg width="17" height="17" fill="none" xmlns="http://www.w3.org/2000/svg"><path fill-rule="evenodd" clip-rule="evenodd" d="M0 16.8l1.445-4.334a8.255 8.255 0 113.26 3.097L-.001 16.8z" fill="#DADADA"/><path fill-rule="evenodd" clip-rule="evenodd" d="M13.81 11.004c-.381-.723-1.787-1.546-1.787-1.546-.319-.179-.7-.201-.884.124 0 0-.46.548-.572.627-.532.358-1.025.347-1.517-.152L7.896 8.904 6.742 7.75c-.498-.498-.51-.985-.15-1.517.078-.118.626-.571.626-.571.325-.18.303-.566.124-.885 0 0-.824-1.406-1.546-1.787a.79.79 0 00-.93.14l-.51.51c-1.612 1.613-.817 3.438.796 5.057l1.478 1.478 1.479 1.478c1.613 1.613 3.438 2.414 5.057.796l.51-.51a.79.79 0 00.14-.93l-.006-.005z" fill="#fff"/></svg>