<svg width="17" height="17" viewBox="0 0 17 17" fill="none" xmlns="http://www.w3.org/2000/svg">
<path d="M8.60006 16.8C13.2392 16.8 17 13.0392 17 8.39999C17 3.7608 13.2392 0 8.60006 0C3.96087 0 0.200073 3.7608 0.200073 8.39999C0.200073 13.0392 3.96087 16.8 8.60006 16.8Z" fill="#41B4E6"/>
<path fill-rule="evenodd" clip-rule="evenodd" d="M7.44654 9.6264L11.2433 12.488L13.1585 4.31201L3.36975 8.16481L6.34895 9.1504L11.7865 5.49921L7.44654 9.6264Z" fill="white"/>
<path fill-rule="evenodd" clip-rule="evenodd" d="M6.34894 9.15035L7.16094 12.0847L7.44654 9.62635L11.7865 5.49916L6.34894 9.15035Z" fill="#D2D2D7"/>
<path fill-rule="evenodd" clip-rule="evenodd" d="M8.68403 10.5559L7.16083 12.0847L7.44643 9.62634L8.68403 10.5559Z" fill="#B9B9BE"/>
</svg>
